<svg xmlns="http://www.w3.org/2000/svg" width="84" height="24" viewBox="0 0 84 24"><g fill="#262626"><path d="M84 0v24h-25.421v-24h25.421zm-5.048 16.025l-.408.25c-1.972 1.207-4.111 1.852-6.054 1.852-4.162-.016-6.905-2.491-6.916-6.093.005-3.523 2.867-6.13 6.808-6.142 2.008.002 3.829.522 5.987 1.711l.399.218v-3.216l-.171-.067c-2.435-.964-4.323-1.395-6.188-1.395-2.881 0-5.385.954-7.164 2.578-1.78 1.618-2.838 3.908-2.838 6.532.002 1.832.755 3.978 2.367 5.679 1.605 1.704 4.083 2.946 7.478 2.944h.013c2.817 0 4.77-.631 6.535-1.502l.151-.074v-3.275zM54.709 0v24h-25.42v-24h25.42zm-6.039 15.913c.006-2.18-1.439-3.837-3.757-4.476.626-.319 1.118-.713 1.48-1.19.486-.64.715-1.425.715-2.338 0-1.127-.438-2.273-1.386-3.131-.948-.855-2.385-1.414-4.347-1.414h-5.419v17.288h6.358c2.27 0 3.863-.615 4.891-1.529 1.024-.913 1.465-2.107 1.465-3.21zM45.505 15.569c-.002.569-.176 1.145-.688 1.594-.506.448-1.387.787-2.843.787h-2.932v-4.716h2.802c1.308 0 2.232.266 2.816.681.576.417.84.967.845 1.654zM43.132 9.92c.545-.396.808-.954.811-1.79-.001-.576-.165-1.067-.577-1.437-.412-.365-1.116-.628-2.249-.628h-2.073v4.47h1.425c1.228.002 2.114-.221 2.663-.615zM25.419 0v24h-25.419v-24h25.419zm-6.041 15.913c.008-2.18-1.439-3.837-3.754-4.476.622-.319 1.116-.713 1.48-1.19.486-.64.715-1.425.713-2.338.002-1.127-.438-2.273-1.386-3.131-.946-.855-2.382-1.414-4.346-1.414h-5.42v17.288h6.361c2.269 0 3.858-.615 4.884-1.529 1.028-.913 1.471-2.107 1.468-3.21zM13.841 9.92c.543-.396.808-.954.813-1.79-.001-.576-.166-1.067-.578-1.437-.417-.365-1.115-.628-2.25-.628h-2.07v4.47h1.422c1.23.002 2.112-.221 2.663-.615zM15.371 13.915c-.582-.415-1.51-.681-2.815-.681h-2.8v4.716h2.931c1.457 0 2.333-.339 2.842-.787.509-.449.685-1.024.687-1.594-.005-.687-.266-1.237-.845-1.654z"/></g></svg>